<svg width="110" height="32" viewBox="0 0 110 32" fill="none" xmlns="http://www.w3.org/2000/svg">
<path d="M4.45797 8.11166V23H1.47177V8.11166H4.45797ZM10.4585 20.4831H17.1562V23H7.00307V20.6964L13.658 10.6286H7.00307V8.11166H17.1562V10.4153L10.4585 20.4831ZM24.9026 8.11166C26.4668 8.11166 27.839 8.41739 29.0193 9.02885C30.2138 9.64031 31.131 10.5148 31.7709 11.6524C32.425 12.7758 32.752 14.0841 32.752 15.5772C32.752 17.0703 32.425 18.3785 31.7709 19.5019C31.131 20.611 30.2138 21.4713 29.0193 22.0828C27.839 22.6943 26.4668 23 24.9026 23H19.6981V8.11166H24.9026ZM24.796 20.4617C26.3602 20.4617 27.5689 20.0351 28.4221 19.1819C29.2753 18.3287 29.7019 17.1271 29.7019 15.5772C29.7019 14.0272 29.2753 12.8185 28.4221 11.9511C27.5689 11.0694 26.3602 10.6286 24.796 10.6286H22.6843V20.4617H24.796ZM37.9736 10.5219V14.2547H42.9861V16.6223H37.9736V20.5684H43.626V23H34.9874V8.09033H43.626V10.5219H37.9736ZM47.6622 23.1493C47.1219 23.1493 46.6739 22.9858 46.3184 22.6587C45.9771 22.3174 45.8065 21.8979 45.8065 21.4002C45.8065 20.9025 45.9771 20.4902 46.3184 20.1631C46.6739 19.8218 47.1219 19.6512 47.6622 19.6512C48.1884 19.6512 48.6221 19.8218 48.9633 20.1631C49.3046 20.4902 49.4753 20.9025 49.4753 21.4002C49.4753 21.8979 49.3046 22.3174 48.9633 22.6587C48.6221 22.9858 48.1884 23.1493 47.6622 23.1493ZM60.2846 23L54.8668 16.3664V23H51.8806V8.11166H54.8668V14.7879L60.2846 8.11166H63.8893L57.7463 15.4918L64.06 23H60.2846ZM76.3906 12.591C76.0493 11.9653 75.58 11.4889 74.9828 11.1618C74.3855 10.8348 73.6888 10.6713 72.8924 10.6713C72.0108 10.6713 71.2287 10.8703 70.5461 11.2685C69.8636 11.6667 69.3303 12.2355 68.9464 12.9749C68.5625 13.7143 68.3705 14.5675 68.3705 15.5345C68.3705 16.5299 68.5625 17.3973 68.9464 18.1368C69.3446 18.8762 69.892 19.445 70.5888 19.8432C71.2856 20.2413 72.0961 20.4404 73.0204 20.4404C74.158 20.4404 75.0894 20.1418 75.8147 19.5445C76.5399 18.9331 77.0162 18.087 77.2438 17.0063H72.1246V14.724H80.1873V17.3262C79.9882 18.3643 79.5616 19.3241 78.9075 20.2058C78.2534 21.0874 77.4073 21.7984 76.3692 22.3388C75.3454 22.8649 74.1936 23.128 72.9138 23.128C71.4776 23.128 70.1764 22.808 69.0104 22.1681C67.8586 21.514 66.9485 20.611 66.2801 19.4592C65.626 18.3074 65.299 16.9992 65.299 15.5345C65.299 14.0698 65.626 12.7616 66.2801 11.6098C66.9485 10.4437 67.8586 9.54077 69.0104 8.90087C70.1764 8.24675 71.4704 7.91969 72.8924 7.91969C74.5704 7.91969 76.028 8.33207 77.2651 9.15683C78.5022 9.96737 79.3554 11.1121 79.8247 12.591H76.3906Z" fill="#004A60"/>
<path d="M106.759 2.38428H105.329C104.814 2.38428 104.396 2.80217 104.396 3.31767V8.51557C104.396 9.03107 104.814 9.44897 105.329 9.44897H106.759C107.275 9.44897 107.693 9.03107 107.693 8.51557V3.31767C107.693 2.80217 107.275 2.38428 106.759 2.38428Z" fill="#1B76F9"/>
<path d="M109.111 9.09072L100.388 0.366535C100.152 0.131785 99.8329 0 99.5001 0C99.1673 0 98.848 0.131785 98.6121 0.366535L89.8888 9.09072C89.3565 9.68276 89.0429 10.4391 89 11.2342V12.7709C93.7658 16.3166 99.5499 18.2272 105.49 18.2176C107.001 18.2179 108.509 18.0951 110 17.8505V11.2342C109.956 10.4394 109.643 9.68316 109.111 9.09072Z" fill="#1B76F9"/>
<path d="M105.49 19.6304C99.5503 19.6398 93.7662 17.7292 89.0004 14.1836V22.4846C89.0014 22.8174 89.1341 23.1362 89.3694 23.3714C89.6047 23.6068 89.9235 23.7394 90.2562 23.7405H108.744C109.077 23.7394 109.396 23.6066 109.631 23.3714C109.866 23.136 109.999 22.8173 110 22.4846V19.2632C108.509 19.5078 107.001 19.6306 105.49 19.6304Z" fill="#1B76F9"/>
</svg>
